<svg id="Camada_1" data-name="Camada 1" xmlns="http://www.w3.org/2000/svg" viewBox="0 0 277 423"><defs><style>.cls-1{fill:#fff;}</style></defs><rect x="0.5" y="0.5" width="276" height="422" rx="44.66"/><path d="M597.84,144A44.21,44.21,0,0,1,642,188.16V520.84A44.21,44.21,0,0,1,597.84,565H411.16A44.21,44.21,0,0,1,367,520.84V188.16A44.21,44.21,0,0,1,411.16,144H597.84m0-1H411.16A45.16,45.16,0,0,0,366,188.16V520.84A45.16,45.16,0,0,0,411.16,566H597.84A45.16,45.16,0,0,0,643,520.84V188.16A45.16,45.16,0,0,0,597.84,143Z" transform="translate(-366 -143)"/><rect class="cls-1" x="26.5" y="32.5" width="219" height="314" rx="21.64"/><path d="M589.86,176A21.16,21.16,0,0,1,611,197.14V467.86A21.16,21.16,0,0,1,589.86,489H414.14A21.16,21.16,0,0,1,393,467.86V197.14A21.16,21.16,0,0,1,414.14,176H589.86m0-1H414.14A22.14,22.14,0,0,0,392,197.14V467.86A22.14,22.14,0,0,0,414.14,490H589.86A22.14,22.14,0,0,0,612,467.86V197.14A22.14,22.14,0,0,0,589.86,175Z" transform="translate(-366 -143)"/><rect class="cls-1" x="110.5" y="363.5" width="63" height="42" rx="14.08"/><path d="M525.42,507A13.59,13.59,0,0,1,539,520.58v13.84A13.59,13.59,0,0,1,525.42,548H490.58A13.59,13.59,0,0,1,477,534.42V520.58A13.59,13.59,0,0,1,490.58,507h34.84m0-1H490.58A14.58,14.58,0,0,0,476,520.58v13.84A14.58,14.58,0,0,0,490.58,549h34.84A14.58,14.58,0,0,0,540,534.42V520.58A14.58,14.58,0,0,0,525.42,506Z" transform="translate(-366 -143)"/></svg>