<?xml version="1.0" encoding="utf-8" ?>
<?xml-stylesheet type="text/css" href="../styles.css" ?>


<svg id="Camada_1" data-name="Camada 1" xmlns="http://www.w3.org/2000/svg" viewBox="0 0 1543.59 445.31"><defs><style>.cls-1{fill:white;}</style></defs><path class="cls-1" d="M1291.88,57.29c3.22,0,3.23-5,0-5s-3.22,5,0,5Z" transform="translate(-22.8 -21.28)"/><path class="cls-1" d="M1350,120.86c3.22,0,3.23-5,0-5s-3.22,5,0,5Z" transform="translate(-22.8 -21.28)"/><path class="cls-1" d="M1387.23,75.9c3.22,0,3.23-5,0-5s-3.22,5,0,5Z" transform="translate(-22.8 -21.28)"/><path class="cls-1" d="M1443.82,120.86c3.22,0,3.22-5,0-5s-3.22,5,0,5Z" transform="translate(-22.8 -21.28)"/><path class="cls-1" d="M1436.07,219.31c3.22,0,3.22-5,0-5s-3.22,5,0,5Z" transform="translate(-22.8 -21.28)"/><path class="cls-1" d="M1380.26,277.45c3.21,0,3.22-5,0-5s-3.23,5,0,5Z" transform="translate(-22.8 -21.28)"/><path class="cls-1" d="M1246.15,269.69c3.21,0,3.22-5,0-5s-3.23,5,0,5Z" transform="translate(-22.8 -21.28)"/><path class="cls-1" d="M1203.51,221.63c3.22,0,3.22-5,0-5s-3.22,5,0,5Z" transform="translate(-22.8 -21.28)"/><path class="cls-1" d="M1146.32,163.32V161a2,2,0,0,0-.21-1,2,2,0,0,0-.52-.81,1.93,1.93,0,0,0-.81-.51,1.84,1.84,0,0,0-1-.22l-.66.09a2.53,2.53,0,0,0-1.11.64l-.39.51a2.53,2.53,0,0,0-.34,1.26v2.33a1.88,1.88,0,0,0,.22,1,2.16,2.16,0,0,0,1.32,1.32,1.88,1.88,0,0,0,1,.22l.67-.09a2.5,2.5,0,0,0,1.1-.64l.39-.51a2.43,2.43,0,0,0,.34-1.26Z" transform="translate(-22.8 -21.28)"/><path class="cls-1" d="M1088,106.9c3.22,0,3.22-5,0-5s-3.22,5,0,5Z" transform="translate(-22.8 -21.28)"/><path class="cls-1" d="M1007.47,115.37l-1.55-3.88a1.85,1.85,0,0,0-.45-.85,1.8,1.8,0,0,0-.7-.64,2.49,2.49,0,0,0-3.42.89l-.25.6a2.5,2.5,0,0,0,0,1.33l1.55,3.88a2,2,0,0,0,.45.85,2,2,0,0,0,.7.64,2.55,2.55,0,0,0,1.93.25,2.49,2.49,0,0,0,1.49-1.15l.25-.59a2.5,2.5,0,0,0,0-1.33Z" transform="translate(-22.8 -21.28)"/><path class="cls-1" d="M930.64,168.14c3.22,0,3.23-5,0-5s-3.22,5,0,5Z" transform="translate(-22.8 -21.28)"/><path class="cls-1" d="M892.66,178.22c3.22,0,3.22-5,0-5s-3.22,5,0,5Z" transform="translate(-22.8 -21.28)"/><path class="cls-1" d="M792.66,97.6c3.22,0,3.22-5,0-5s-3.22,5,0,5Z" transform="translate(-22.8 -21.28)"/><path class="cls-1" d="M729.09,79c3.22,0,3.23-5,0-5s-3.22,5,0,5Z" transform="translate(-22.8 -21.28)"/><path class="cls-1" d="M638.4,124.73c3.21,0,3.22-5,0-5s-3.23,5,0,5Z" transform="translate(-22.8 -21.28)"/><path class="cls-1" d="M587.23,185.2c3.22,0,3.23-5,0-5s-3.22,5,0,5Z" transform="translate(-22.8 -21.28)"/><path class="cls-1" d="M509.71,212.33c3.22,0,3.23-5,0-5s-3.22,5,0,5Z" transform="translate(-22.8 -21.28)"/><path class="cls-1" d="M411.26,251.86c3.22,0,3.23-5,0-5s-3.22,5,0,5Z" transform="translate(-22.8 -21.28)"/><path class="cls-1" d="M335.29,306.9c3.22,0,3.23-5,0-5s-3.22,5,0,5Z" transform="translate(-22.8 -21.28)"/><path class="cls-1" d="M237.62,322.83h-1.55a2.83,2.83,0,0,0-1.77.74,1.83,1.83,0,0,0-.51.8,1.88,1.88,0,0,0-.22,1l.09.67a2.5,2.5,0,0,0,.64,1.1l.51.39a2.43,2.43,0,0,0,1.26.34h1.55a1.85,1.85,0,0,0,1-.21,2,2,0,0,0,.81-.52,2.83,2.83,0,0,0,.73-1.77l-.09-.66a2.5,2.5,0,0,0-.64-1.1l-.51-.4a2.53,2.53,0,0,0-1.26-.34Z" transform="translate(-22.8 -21.28)"/><path class="cls-1" d="M191.11,261.17c3.22,0,3.22-5,0-5s-3.22,5,0,5Z" transform="translate(-22.8 -21.28)"/><path class="cls-1" d="M161.65,170.47c3.22,0,3.22-5,0-5s-3.22,5,0,5Z" transform="translate(-22.8 -21.28)"/><path class="cls-1" d="M140.12,103.63v-1.55a2.83,2.83,0,0,0-.73-1.77,2,2,0,0,0-.81-.52,1.85,1.85,0,0,0-1-.21l-.66.09a2.48,2.48,0,0,0-1.11.64l-.39.51a2.53,2.53,0,0,0-.34,1.26v1.55a1.88,1.88,0,0,0,.22,1,2.16,2.16,0,0,0,1.32,1.32,1.86,1.86,0,0,0,1,.22l.66-.09a2.48,2.48,0,0,0,1.11-.64l.39-.51a2.53,2.53,0,0,0,.34-1.26Z" transform="translate(-22.8 -21.28)"/><path class="cls-1" d="M160.1,68.92c3.22,0,3.22-5,0-5s-3.22,5,0,5Z" transform="translate(-22.8 -21.28)"/><path class="cls-1" d="M213,111.87l.78,1.55a2.8,2.8,0,0,0,1.49,1.15,2,2,0,0,0,1,0,1.77,1.77,0,0,0,.93-.3l.5-.39a2.52,2.52,0,0,0,.65-1.1l.08-.66a2.44,2.44,0,0,0-.34-1.27l-.77-1.55a2.87,2.87,0,0,0-1.5-1.15,1.85,1.85,0,0,0-1,0,1.71,1.71,0,0,0-.93.3l-.51.39a2.5,2.5,0,0,0-.64,1.1l-.09.66a2.44,2.44,0,0,0,.34,1.27Z" transform="translate(-22.8 -21.28)"/><path class="cls-1" d="M310.49,155.74c3.22,0,3.22-5,0-5s-3.22,5,0,5Z" transform="translate(-22.8 -21.28)"/><path class="cls-1" d="M338.4,108.45c3.21,0,3.22-5,0-5s-3.23,5,0,5Z" transform="translate(-22.8 -21.28)"/><path class="cls-1" d="M362.43,75.9c3.21,0,3.22-5,0-5s-3.23,5,0,5Z" transform="translate(-22.8 -21.28)"/><path class="cls-1" d="M470.18,68.92c3.22,0,3.22-5,0-5s-3.22,5,0,5Z" transform="translate(-22.8 -21.28)"/><path class="cls-1" d="M472.5,126.28c3.22,0,3.23-5,0-5s-3.22,5,0,5Z" transform="translate(-22.8 -21.28)"/><path class="cls-1" d="M356.44,162.76l1.55-1.55a1.88,1.88,0,0,0,.52-.8,2.32,2.32,0,0,0,0-1.93,1.85,1.85,0,0,0-.52-.81l-.5-.39a2.54,2.54,0,0,0-1.27-.34l-.66.09a2.5,2.5,0,0,0-1.1.64l-1.55,1.55a1.85,1.85,0,0,0-.52.81,2.23,2.23,0,0,0,0,1.93,1.82,1.82,0,0,0,.52.8l.5.39a2.43,2.43,0,0,0,1.26.34l.67-.09a2.5,2.5,0,0,0,1.1-.64Z" transform="translate(-22.8 -21.28)"/><path class="cls-1" d="M294.21,234c3.22,0,3.22-5,0-5s-3.22,5,0,5Z" transform="translate(-22.8 -21.28)"/><path class="cls-1" d="M235.29,194.5c3.22,0,3.23-5,0-5s-3.22,5,0,5Z" transform="translate(-22.8 -21.28)"/><path class="cls-1" d="M94.21,262.72c3.22,0,3.22-5,0-5s-3.22,5,0,5Z" transform="translate(-22.8 -21.28)"/><path class="cls-1" d="M69.4,319.31c3.22,0,3.23-5,0-5s-3.22,5,0,5Z" transform="translate(-22.8 -21.28)"/><path class="cls-1" d="M80.26,389.07c3.21,0,3.22-5,0-5s-3.23,5,0,5Z" transform="translate(-22.8 -21.28)"/><path class="cls-1" d="M201.19,369.69h1.55a2.43,2.43,0,0,0,2.28-1.53,1.9,1.9,0,0,0,.22-1l-.09-.66a2.52,2.52,0,0,0-.65-1.1L204,365a2.54,2.54,0,0,0-1.26-.35h-1.55a1.9,1.9,0,0,0-1,.22,2.54,2.54,0,0,0-1.53,2.28l.09.67a2.41,2.41,0,0,0,.64,1.1l.5.39a2.44,2.44,0,0,0,1.27.34Z" transform="translate(-22.8 -21.28)"/><path class="cls-1" d="M181,409.23c3.22,0,3.22-5,0-5s-3.22,5,0,5Z" transform="translate(-22.8 -21.28)"/><path class="cls-1" d="M160.1,341.79c3.22,0,3.22-5,0-5s-3.22,5,0,5Z" transform="translate(-22.8 -21.28)"/><path class="cls-1" d="M125.22,445.66c3.21,0,3.22-5,0-5s-3.23,5,0,5Z" transform="translate(-22.8 -21.28)"/><path class="cls-1" d="M73.5,446.48l.77-.77a1.85,1.85,0,0,0,.52-.81,2.32,2.32,0,0,0,0-1.93,1.82,1.82,0,0,0-.52-.8l-.5-.39a2.44,2.44,0,0,0-1.27-.34l-.66.09a2.5,2.5,0,0,0-1.1.64L70,443a1.85,1.85,0,0,0-.52.8,2.32,2.32,0,0,0,0,1.93,1.92,1.92,0,0,0,.52.8l.51.39a2.43,2.43,0,0,0,1.26.34l.66-.09a2.44,2.44,0,0,0,1.11-.64Z" transform="translate(-22.8 -21.28)"/><path class="cls-1" d="M591.11,369.69c3.22,0,3.22-5,0-5s-3.22,5,0,5Z" transform="translate(-22.8 -21.28)"/><path class="cls-1" d="M538.61,308.84l-.77-.78a2.05,2.05,0,0,0-.81-.52,2.3,2.3,0,0,0-1.92,0,2.05,2.05,0,0,0-.81.52l-.39.51a2.43,2.43,0,0,0-.34,1.26l.09.66a2.48,2.48,0,0,0,.64,1.11l.78.77a2.7,2.7,0,0,0,1.76.73,1.8,1.8,0,0,0,1-.21,1.77,1.77,0,0,0,.8-.52l.39-.5a2.44,2.44,0,0,0,.34-1.27l-.08-.66a2.52,2.52,0,0,0-.65-1.1Z" transform="translate(-22.8 -21.28)"/><path class="cls-1" d="M449.42,333.86v-1.55a1.85,1.85,0,0,0-.21-1,2,2,0,0,0-.52-.81,2.83,2.83,0,0,0-1.77-.73l-.66.09a2.53,2.53,0,0,0-1.11.64l-.39.51a2.53,2.53,0,0,0-.34,1.26v1.55a1.86,1.86,0,0,0,.22,1,1.93,1.93,0,0,0,.51.81,2.05,2.05,0,0,0,.81.52,2,2,0,0,0,1,.21l.67-.09a2.5,2.5,0,0,0,1.1-.64l.39-.51a2.43,2.43,0,0,0,.34-1.26Z" transform="translate(-22.8 -21.28)"/><path class="cls-1" d="M450,281.32c3.22,0,3.23-5,0-5s-3.22,5,0,5Z" transform="translate(-22.8 -21.28)"/><path class="cls-1" d="M402,342.56c3.22,0,3.22-5,0-5s-3.22,5,0,5Z" transform="translate(-22.8 -21.28)"/><path class="cls-1" d="M338.4,355c3.21,0,3.22-5,0-5s-3.23,5,0,5Z" transform="translate(-22.8 -21.28)"/><path class="cls-1" d="M288.78,375.9c3.22,0,3.23-5,0-5s-3.22,5,0,5Z" transform="translate(-22.8 -21.28)"/><path class="cls-1" d="M299.64,421.63c3.21,0,3.22-5,0-5s-3.23,5,0,5Z" transform="translate(-22.8 -21.28)"/><path class="cls-1" d="M396.53,427.83h2.33a1.85,1.85,0,0,0,1-.21,2,2,0,0,0,.81-.52,2.69,2.69,0,0,0,.73-1.77l-.09-.66a2.5,2.5,0,0,0-.64-1.1l-.51-.4a2.53,2.53,0,0,0-1.26-.34h-2.33a1.88,1.88,0,0,0-1,.22,2.3,2.3,0,0,0-1.32,1.32,1.88,1.88,0,0,0-.22,1l.09.67a2.52,2.52,0,0,0,.65,1.1l.5.39a2.43,2.43,0,0,0,1.26.34Z" transform="translate(-22.8 -21.28)"/><path class="cls-1" d="M578.71,409.23c3.21,0,3.22-5,0-5s-3.23,5,0,5Z" transform="translate(-22.8 -21.28)"/><path class="cls-1" d="M656.22,310.78c3.22,0,3.23-5,0-5s-3.22,5,0,5Z" transform="translate(-22.8 -21.28)"/><path class="cls-1" d="M646.15,224.73c3.21,0,3.22-5,0-5s-3.23,5,0,5Z" transform="translate(-22.8 -21.28)"/><path class="cls-1" d="M678.71,179c3.21,0,3.22-5,0-5s-3.23,5,0,5Z" transform="translate(-22.8 -21.28)"/><path class="cls-1" d="M723.67,151.09c3.21,0,3.22-5,0-5s-3.23,5,0,5Z" transform="translate(-22.8 -21.28)"/><path class="cls-1" d="M774.05,187.52c3.22,0,3.23-5,0-5s-3.22,5,0,5Z" transform="translate(-22.8 -21.28)"/><path class="cls-1" d="M767.85,262.72c3.22,0,3.23-5,0-5s-3.22,5,0,5Z" transform="translate(-22.8 -21.28)"/><path class="cls-1" d="M825.22,320.86c3.21,0,3.22-5,0-5s-3.23,5,0,5Z" transform="translate(-22.8 -21.28)"/><path class="cls-1" d="M822.21,359.65a1.09,1.09,0,0,1,.24.07l-.59-.25a1.17,1.17,0,0,1,.28.17l-.51-.4a1.23,1.23,0,0,1,.25.26l-.39-.51a2.33,2.33,0,0,1,.2.34l-.26-.6a1.66,1.66,0,0,1,.12.42l-.09-.66a1.21,1.21,0,0,1,0,.38l.09-.66a1.25,1.25,0,0,1-.08.32l.25-.6a1.35,1.35,0,0,1-.15.26l.39-.5,0,0a1.85,1.85,0,0,0-.52.8,2.32,2.32,0,0,0,0,1.93,1.85,1.85,0,0,0,.52.8l.51.39a2.54,2.54,0,0,0,1.26.35l.66-.09a2.55,2.55,0,0,0,1.11-.65,6.5,6.5,0,0,0,.49-.65,5.71,5.71,0,0,0,.32-.74,4.39,4.39,0,0,0,.18-1,1.45,1.45,0,0,0,0-.36,4.05,4.05,0,0,0-.18-1,4.7,4.7,0,0,0-.41-.92,4.42,4.42,0,0,0-.61-.76,3.92,3.92,0,0,0-.79-.6,3.52,3.52,0,0,0-.93-.36,1.9,1.9,0,0,0-1-.05,2,2,0,0,0-.93.3,1.88,1.88,0,0,0-.7.64,1.94,1.94,0,0,0-.45.85l-.09.67a2.53,2.53,0,0,0,.34,1.26l.39.51a2.48,2.48,0,0,0,1.11.64Z" transform="translate(-22.8 -21.28)"/><path class="cls-1" d="M761,374.26l-.79-2.32a1.94,1.94,0,0,0-.45-.85,1.8,1.8,0,0,0-.7-.64,1.77,1.77,0,0,0-.93-.3,2,2,0,0,0-1,0l-.59.26a2.48,2.48,0,0,0-.9.89l-.25.6a2.5,2.5,0,0,0,0,1.33l.79,2.32a1.89,1.89,0,0,0,.45.85,1.8,1.8,0,0,0,.7.64,1.71,1.71,0,0,0,.93.3,1.85,1.85,0,0,0,1,0l.6-.26a2.48,2.48,0,0,0,.9-.89l.25-.6a2.5,2.5,0,0,0,0-1.33Z" transform="translate(-22.8 -21.28)"/><path class="cls-1" d="M736.84,313.88c3.22,0,3.23-5,0-5s-3.22,5,0,5Z" transform="translate(-22.8 -21.28)"/><path class="cls-1" d="M727.54,302.25c3.22,0,3.23-5,0-5s-3.22,5,0,5Z" transform="translate(-22.8 -21.28)"/><path class="cls-1" d="M691.88,361.94c3.22,0,3.23-5,0-5s-3.22,5,0,5Z" transform="translate(-22.8 -21.28)"/><path class="cls-1" d="M660.88,382.1c3.21,0,3.22-5,0-5s-3.23,5,0,5Z" transform="translate(-22.8 -21.28)"/><path class="cls-1" d="M658.55,425.51c3.22,0,3.22-5,0-5s-3.22,5,0,5Z" transform="translate(-22.8 -21.28)"/><path class="cls-1" d="M823.67,424c3.21,0,3.22-5,0-5s-3.23,5,0,5Z" transform="translate(-22.8 -21.28)"/><path class="cls-1" d="M750,426.28c3.22,0,3.23-5,0-5s-3.22,5,0,5Z" transform="translate(-22.8 -21.28)"/><path class="cls-1" d="M922.89,357.29c3.22,0,3.22-5,0-5s-3.22,5,0,5Z" transform="translate(-22.8 -21.28)"/><path class="cls-1" d="M925.22,275.9c3.21,0,3.22-5,0-5s-3.23,5,0,5Z" transform="translate(-22.8 -21.28)"/><path class="cls-1" d="M905.06,236.36c3.22,0,3.22-5,0-5s-3.22,5,0,5Z" transform="translate(-22.8 -21.28)"/><path class="cls-1" d="M849.25,228.61c3.22,0,3.22-5,0-5s-3.22,5,0,5Z" transform="translate(-22.8 -21.28)"/><path class="cls-1" d="M842.27,265c3.22,0,3.22-5,0-5s-3.22,5,0,5Z" transform="translate(-22.8 -21.28)"/><path class="cls-1" d="M891.33,290.23l-.78-.77a1.82,1.82,0,0,0-.8-.52,2.23,2.23,0,0,0-1.93,0,1.77,1.77,0,0,0-.8.52l-.4.5a2.53,2.53,0,0,0-.34,1.26l.09.67A2.52,2.52,0,0,0,887,293l.77.78a2,2,0,0,0,.8.51,2.23,2.23,0,0,0,1.93,0,1.93,1.93,0,0,0,.81-.51l.39-.51a2.53,2.53,0,0,0,.34-1.26l-.09-.66a2.48,2.48,0,0,0-.64-1.11Z" transform="translate(-22.8 -21.28)"/><path class="cls-1" d="M865.53,339.46c3.21,0,3.22-5,0-5s-3.23,5,0,5Z" transform="translate(-22.8 -21.28)"/><path class="cls-1" d="M883.36,397.6h1.55a2,2,0,0,0,1-.21,2,2,0,0,0,.8-.52,2.83,2.83,0,0,0,.74-1.77l-.09-.66a2.5,2.5,0,0,0-.65-1.11l-.5-.39a2.53,2.53,0,0,0-1.26-.34h-1.55a2.83,2.83,0,0,0-1.77.73,2,2,0,0,0-.52.81,1.88,1.88,0,0,0-.21,1l.09.67a2.41,2.41,0,0,0,.64,1.1l.5.39a2.47,2.47,0,0,0,1.27.34Z" transform="translate(-22.8 -21.28)"/><path class="cls-1" d="M993.43,414.66c3.22,0,3.23-5,0-5s-3.22,5,0,5Z" transform="translate(-22.8 -21.28)"/><path class="cls-1" d="M1021.34,359.62c3.22,0,3.22-5,0-5s-3.22,5,0,5Z" transform="translate(-22.8 -21.28)"/><path class="cls-1" d="M1026,310c3.22,0,3.22-5,0-5s-3.22,5,0,5Z" transform="translate(-22.8 -21.28)"/><path class="cls-1" d="M1026,261.17c3.22,0,3.22-5,0-5s-3.22,5,0,5Z" transform="translate(-22.8 -21.28)"/><path class="cls-1" d="M1051.57,171.24c3.22,0,3.23-5,0-5s-3.22,5,0,5Z" transform="translate(-22.8 -21.28)"/><path class="cls-1" d="M969.4,174.34c3.22,0,3.23-5,0-5s-3.22,5,0,5Z" transform="translate(-22.8 -21.28)"/><path class="cls-1" d="M965.53,236.36c3.21,0,3.22-5,0-5s-3.23,5,0,5Z" transform="translate(-22.8 -21.28)"/><path class="cls-1" d="M1004.29,201.48c3.21,0,3.22-5,0-5s-3.23,5,0,5Z" transform="translate(-22.8 -21.28)"/><path class="cls-1" d="M1003.51,153.41c3.22,0,3.22-5,0-5s-3.22,5,0,5Z" transform="translate(-22.8 -21.28)"/><path class="cls-1" d="M1038.4,129.38c3.21,0,3.22-5,0-5s-3.23,5,0,5Z" transform="translate(-22.8 -21.28)"/><path class="cls-1" d="M1074.83,172.79c3.22,0,3.22-5,0-5s-3.22,5,0,5Z" transform="translate(-22.8 -21.28)"/><path class="cls-1" d="M1081.81,231.71h.77a1.84,1.84,0,0,0,1-.22,1.93,1.93,0,0,0,.81-.51,2,2,0,0,0,.52-.81,2,2,0,0,0,.21-1l-.09-.67a2.5,2.5,0,0,0-.64-1.1l-.51-.39a2.43,2.43,0,0,0-1.26-.34h-.77a2,2,0,0,0-1,.21,2,2,0,0,0-.8.52,1.85,1.85,0,0,0-.52.81,1.76,1.76,0,0,0-.21,1l.09.66A2.39,2.39,0,0,0,1080,231l.5.39a2.54,2.54,0,0,0,1.27.34Z" transform="translate(-22.8 -21.28)"/><path class="cls-1" d="M1143.26,213.15l.78-.78a1.85,1.85,0,0,0,.52-.8,2.32,2.32,0,0,0,0-1.93,1.85,1.85,0,0,0-.52-.8l-.51-.39a2.54,2.54,0,0,0-1.26-.35l-.66.09a2.55,2.55,0,0,0-1.11.65l-.77.77a1.85,1.85,0,0,0-.52.81,2.3,2.3,0,0,0,0,1.92,1.85,1.85,0,0,0,.52.81l.5.39a2.54,2.54,0,0,0,1.27.34l.66-.09a2.5,2.5,0,0,0,1.1-.64Z" transform="translate(-22.8 -21.28)"/><path class="cls-1" d="M1081.81,213.1c3.21,0,3.22-5,0-5s-3.23,5,0,5Z" transform="translate(-22.8 -21.28)"/><path class="cls-1" d="M1219,183.65c3.21,0,3.22-5,0-5s-3.23,5,0,5Z" transform="translate(-22.8 -21.28)"/><path class="cls-1" d="M1233,136.36c3.22,0,3.22-5,0-5s-3.22,5,0,5Z" transform="translate(-22.8 -21.28)"/><path class="cls-1" d="M1226.77,103.8c3.21,0,3.22-5,0-5s-3.23,5,0,5Z" transform="translate(-22.8 -21.28)"/><path class="cls-1" d="M1277.07,140.73l.78,2.32a1.78,1.78,0,0,0,.44.85,2,2,0,0,0,.7.65,1.85,1.85,0,0,0,.93.29,1.89,1.89,0,0,0,1,0l.6-.25a2.56,2.56,0,0,0,.89-.9l.26-.6a2.5,2.5,0,0,0,0-1.33l-.78-2.32a2.87,2.87,0,0,0-1.15-1.5,1.79,1.79,0,0,0-.93-.29,1.85,1.85,0,0,0-1,0l-.6.25a2.5,2.5,0,0,0-.9.9l-.25.6a2.5,2.5,0,0,0,0,1.33Z" transform="translate(-22.8 -21.28)"/><path class="cls-1" d="M1293.43,171.24c3.22,0,3.23-5,0-5s-3.22,5,0,5Z" transform="translate(-22.8 -21.28)"/><path class="cls-1" d="M1295.76,213.1c3.22,0,3.22-5,0-5s-3.22,5,0,5Z" transform="translate(-22.8 -21.28)"/><path class="cls-1" d="M1255.45,229.38c3.22,0,3.22-5,0-5s-3.22,5,0,5Z" transform="translate(-22.8 -21.28)"/><path class="cls-1" d="M1257,266.59c3.22,0,3.22-5,0-5s-3.22,5,0,5Z" transform="translate(-22.8 -21.28)"/><path class="cls-1" d="M1143.05,268.92c3.21,0,3.22-5,0-5s-3.23,5,0,5Z" transform="translate(-22.8 -21.28)"/><path class="cls-1" d="M1174.05,348.76c3.22,0,3.23-5,0-5s-3.22,5,0,5Z" transform="translate(-22.8 -21.28)"/><path class="cls-1" d="M1263.2,336.36c3.22,0,3.22-5,0-5s-3.22,5,0,5Z" transform="translate(-22.8 -21.28)"/><path class="cls-1" d="M1257.78,373.57c3.21,0,3.22-5,0-5s-3.23,5,0,5Z" transform="translate(-22.8 -21.28)"/><path class="cls-1" d="M1226,382.1c3.22,0,3.22-5,0-5s-3.22,5,0,5Z" transform="translate(-22.8 -21.28)"/><path class="cls-1" d="M1205.06,403.8c3.22,0,3.22-5,0-5s-3.22,5,0,5Z" transform="translate(-22.8 -21.28)"/><path class="cls-1" d="M1102,419.31h.78a1.88,1.88,0,0,0,1-.22,2.3,2.3,0,0,0,1.32-1.32,1.88,1.88,0,0,0,.22-1l-.09-.67a2.52,2.52,0,0,0-.65-1.1l-.5-.39a2.43,2.43,0,0,0-1.26-.34H1102a1.78,1.78,0,0,0-1,.21,1.85,1.85,0,0,0-.81.52,1.83,1.83,0,0,0-.51.8,1.9,1.9,0,0,0-.22,1l.09.66a2.5,2.5,0,0,0,.64,1.1l.51.39a2.54,2.54,0,0,0,1.26.35Z" transform="translate(-22.8 -21.28)"/><path class="cls-1" d="M1115.91,463.49H1119a2.57,2.57,0,0,0,1.76-.73,1.82,1.82,0,0,0,.52-.8,1.9,1.9,0,0,0,.22-1,2.58,2.58,0,0,0-.74-1.77,2.63,2.63,0,0,0-1.76-.73h-3.11a2.57,2.57,0,0,0-1.76.73,1.85,1.85,0,0,0-.52.81,1.88,1.88,0,0,0-.22,1,2.54,2.54,0,0,0,.74,1.77,2.59,2.59,0,0,0,1.76.73Z" transform="translate(-22.8 -21.28)"/><path class="cls-1" d="M1148.47,390.62c3.22,0,3.23-5,0-5s-3.22,5,0,5Z" transform="translate(-22.8 -21.28)"/><path class="cls-1" d="M1113.59,329.38c3.22,0,3.22-5,0-5s-3.22,5,0,5Z" transform="translate(-22.8 -21.28)"/><path class="cls-1" d="M1077.11,308.4l-.77,3.1a2.6,2.6,0,0,0,.25,1.93,2.8,2.8,0,0,0,1.49,1.15,2.52,2.52,0,0,0,3.08-1.75l.77-3.1a2.6,2.6,0,0,0-.25-1.93,1.87,1.87,0,0,0-.64-.7,1.94,1.94,0,0,0-.85-.45,2.52,2.52,0,0,0-3.08,1.75Z" transform="translate(-22.8 -21.28)"/><path class="cls-1" d="M1053.9,386.75c3.22,0,3.22-5,0-5s-3.22,5,0,5Z" transform="translate(-22.8 -21.28)"/><path class="cls-1" d="M1020.57,429.38c3.21,0,3.22-5,0-5s-3.23,5,0,5Z" transform="translate(-22.8 -21.28)"/><path class="cls-1" d="M1393.21,343.23a20.25,20.25,0,0,0-.58,9.12,2.5,2.5,0,0,0,4.57.59,2.89,2.89,0,0,0,.25-1.92l-.06-.44.09.67a17.46,17.46,0,0,1,0-4.51l-.09.66a17.37,17.37,0,0,1,.63-2.84,2.5,2.5,0,1,0-4.82-1.33Z" transform="translate(-22.8 -21.28)"/><path class="cls-1" d="M1507.39,356.52c3.21,0,3.22-5,0-5s-3.22,5,0,5Z" transform="translate(-22.8 -21.28)"/><path class="cls-1" d="M1529.09,292.17c3.22,0,3.23-5,0-5s-3.22,5,0,5Z" transform="translate(-22.8 -21.28)"/><path class="cls-1" d="M1547.7,237.14c3.21,0,3.22-5,0-5s-3.22,5,0,5Z" transform="translate(-22.8 -21.28)"/><path class="cls-1" d="M1561.65,175.12c3.22,0,3.22-5,0-5s-3.22,5,0,5Z" transform="translate(-22.8 -21.28)"/><path class="cls-1" d="M1564,126.28c3.21,0,3.22-5,0-5s-3.23,5,0,5Z" transform="translate(-22.8 -21.28)"/><path class="cls-1" d="M1560.88,108.45c3.21,0,3.22-5,0-5s-3.23,5,0,5Z" transform="translate(-22.8 -21.28)"/><path class="cls-1" d="M1553.12,58.84c3.22,0,3.23-5,0-5s-3.22,5,0,5Z" transform="translate(-22.8 -21.28)"/><path class="cls-1" d="M1526.21,106.17l.77-.77a1.85,1.85,0,0,0,.52-.81,2.23,2.23,0,0,0,0-1.93,1.82,1.82,0,0,0-.52-.8l-.5-.39a2.43,2.43,0,0,0-1.26-.34l-.67.09a2.5,2.5,0,0,0-1.1.64l-.78.78a1.83,1.83,0,0,0-.51.8,2.58,2.58,0,0,0,.51,2.73l.51.39a2.43,2.43,0,0,0,1.26.34l.67-.09a2.41,2.41,0,0,0,1.1-.64Z" transform="translate(-22.8 -21.28)"/><path class="cls-1" d="M1531.24,161.77v.77a1.9,1.9,0,0,0,.22,1,1.82,1.82,0,0,0,.52.8,1.85,1.85,0,0,0,.8.52,1.88,1.88,0,0,0,1,.21l.67-.09a2.5,2.5,0,0,0,1.1-.64l.39-.51a2.43,2.43,0,0,0,.34-1.26v-.77a1.8,1.8,0,0,0-.21-1,1.82,1.82,0,0,0-.52-.8,1.85,1.85,0,0,0-.8-.52,1.89,1.89,0,0,0-1-.21l-.66.09a2.5,2.5,0,0,0-1.1.64l-.39.51a2.54,2.54,0,0,0-.35,1.26Z" transform="translate(-22.8 -21.28)"/><path class="cls-1" d="M1506.44,206.73v.77a1.89,1.89,0,0,0,.21,1,1.85,1.85,0,0,0,.52.8,1.82,1.82,0,0,0,.8.52,1.8,1.8,0,0,0,1,.21l.66-.09a2.44,2.44,0,0,0,1.11-.64l.39-.5a2.54,2.54,0,0,0,.34-1.27v-.77a1.84,1.84,0,0,0-.22-1,1.93,1.93,0,0,0-.51-.81,2,2,0,0,0-.81-.52,2,2,0,0,0-1-.21l-.67.09a2.5,2.5,0,0,0-1.1.64l-.39.51a2.43,2.43,0,0,0-.34,1.26Z" transform="translate(-22.8 -21.28)"/><path class="cls-1" d="M1485.66,243l1.52-3.89a1.89,1.89,0,0,0,0-1,1.77,1.77,0,0,0-.3-.93,2.51,2.51,0,0,0-3.42-.89l-.5.39a2.52,2.52,0,0,0-.65,1.1l-1.51,3.89a1.89,1.89,0,0,0,0,1,1.85,1.85,0,0,0,.29.93,2.51,2.51,0,0,0,3.42.9l.51-.39a2.53,2.53,0,0,0,.64-1.11Z" transform="translate(-22.8 -21.28)"/><path class="cls-1" d="M1443.82,284.42c3.22,0,3.22-5,0-5s-3.22,5,0,5Z" transform="translate(-22.8 -21.28)"/><path class="cls-1" d="M1427.54,321.63c3.22,0,3.23-5,0-5s-3.22,5,0,5Z" transform="translate(-22.8 -21.28)"/><path class="cls-1" d="M1434.52,344.89c3.22,0,3.22-5,0-5s-3.22,5,0,5Z" transform="translate(-22.8 -21.28)"/><path class="cls-1" d="M1423.49,384.25v1.55a1.88,1.88,0,0,0,.22,1,2.16,2.16,0,0,0,1.32,1.32,1.88,1.88,0,0,0,1,.22l.67-.09a2.5,2.5,0,0,0,1.1-.64l.39-.51a2.43,2.43,0,0,0,.34-1.26v-1.55a1.89,1.89,0,0,0-.21-1A2.3,2.3,0,0,0,1427,382a2,2,0,0,0-1-.21l-.66.09a2.53,2.53,0,0,0-1.11.64l-.39.51a2.53,2.53,0,0,0-.34,1.26Z" transform="translate(-22.8 -21.28)"/><path class="cls-1" d="M1366.08,392.56l-.77.77a2,2,0,0,0-.52.81,1.88,1.88,0,0,0-.21,1,1.85,1.85,0,0,0,.21,1,2,2,0,0,0,.52.81l.51.39a2.43,2.43,0,0,0,1.26.34l.66-.09a2.53,2.53,0,0,0,1.11-.64l.77-.78a1.85,1.85,0,0,0,.52-.8,2.32,2.32,0,0,0,0-1.93,1.85,1.85,0,0,0-.52-.8l-.51-.39a2.43,2.43,0,0,0-1.26-.34l-.66.08a2.55,2.55,0,0,0-1.11.65Z" transform="translate(-22.8 -21.28)"/><path class="cls-1" d="M1296.43,394.08l2.32-3.1a2,2,0,0,0,.3-.93,1.9,1.9,0,0,0,0-1,1.83,1.83,0,0,0-.44-.85,1.91,1.91,0,0,0-.71-.64,2.49,2.49,0,0,0-1.92-.25l-.6.25a2.59,2.59,0,0,0-.9.9l-2.32,3.1a1.9,1.9,0,0,0-.3.93,1.86,1.86,0,0,0,0,1,1.8,1.8,0,0,0,.45.85,1.83,1.83,0,0,0,.7.65,2.53,2.53,0,0,0,1.92.25l.6-.25a2.5,2.5,0,0,0,.9-.9Z" transform="translate(-22.8 -21.28)"/><path class="cls-1" d="M1269.09,435.21l2.33-1.55a2.8,2.8,0,0,0,1.15-1.49,1.89,1.89,0,0,0,0-1,1.85,1.85,0,0,0-.29-.93l-.4-.51a2.5,2.5,0,0,0-1.1-.64l-.66-.09a2.57,2.57,0,0,0-1.27.34l-2.32,1.55a2.87,2.87,0,0,0-1.15,1.5,1.85,1.85,0,0,0,0,1,1.79,1.79,0,0,0,.29.93l.39.51a2.48,2.48,0,0,0,1.11.64l.66.09a2.43,2.43,0,0,0,1.26-.34Z" transform="translate(-22.8 -21.28)"/><path class="cls-1" d="M1227.54,461.59h-.77a1.9,1.9,0,0,0-1,.22,1.82,1.82,0,0,0-.8.52,1.85,1.85,0,0,0-.52.8,1.88,1.88,0,0,0-.21,1l.09.67a2.5,2.5,0,0,0,.64,1.1l.51.39a2.43,2.43,0,0,0,1.26.34h.77a1.89,1.89,0,0,0,1-.21,2.3,2.3,0,0,0,1.32-1.32,1.89,1.89,0,0,0,.21-1l-.09-.66a2.45,2.45,0,0,0-.64-1.1l-.51-.4a2.53,2.53,0,0,0-1.26-.34Z" transform="translate(-22.8 -21.28)"/><path class="cls-1" d="M1197.91,457.89v.78a1.88,1.88,0,0,0,.22,1,1.83,1.83,0,0,0,.51.8,1.85,1.85,0,0,0,.81.52,1.88,1.88,0,0,0,1,.22l.67-.09a2.52,2.52,0,0,0,1.1-.65l.39-.5a2.43,2.43,0,0,0,.34-1.26v-.78a2,2,0,0,0-.21-1,2.05,2.05,0,0,0-.52-.81,1.93,1.93,0,0,0-.81-.51,1.84,1.84,0,0,0-1-.22l-.66.09a2.53,2.53,0,0,0-1.11.64l-.39.51a2.53,2.53,0,0,0-.34,1.26Z" transform="translate(-22.8 -21.28)"/><path class="cls-1" d="M1387.33,449.49c.32.09.63.21.94.33l-.6-.25a10.43,10.43,0,0,1,2.3,1.35l-.5-.39a9.75,9.75,0,0,1,1.43,1.37,2.57,2.57,0,0,0,1.77.73,2.49,2.49,0,0,0,2.5-2.5,2.78,2.78,0,0,0-.73-1.77,12.7,12.7,0,0,0-5.78-3.7,2.6,2.6,0,0,0-1.93.26,2.51,2.51,0,0,0-.89,3.42,2.72,2.72,0,0,0,1.49,1.15Z" transform="translate(-22.8 -21.28)"/><path class="cls-1" d="M1497.31,452.64c3.22,0,3.22-5,0-5s-3.22,5,0,5Z" transform="translate(-22.8 -21.28)"/><path class="cls-1" d="M1539,435.13l2.34-4.65a2.67,2.67,0,0,0,.25-1.92,2.58,2.58,0,0,0-1.15-1.5,2.5,2.5,0,0,0-3.42.9l-2.33,4.65a2.63,2.63,0,0,0-.26,1.92,2.58,2.58,0,0,0,1.15,1.5,2.51,2.51,0,0,0,1.93.25,2.46,2.46,0,0,0,1.49-1.15Z" transform="translate(-22.8 -21.28)"/><path class="cls-1" d="M1516.69,388.72h-1.55a2.83,2.83,0,0,0-1.77.74,2,2,0,0,0-.52.8,2,2,0,0,0-.21,1l.09.67a2.5,2.5,0,0,0,.64,1.1l.51.39a2.43,2.43,0,0,0,1.26.34h1.55a1.76,1.76,0,0,0,1-.21,1.85,1.85,0,0,0,.81-.52,1.83,1.83,0,0,0,.51-.8,1.9,1.9,0,0,0,.22-1l-.09-.66a2.5,2.5,0,0,0-.64-1.1l-.51-.39a2.54,2.54,0,0,0-1.26-.35Z" transform="translate(-22.8 -21.28)"/><path class="cls-1" d="M1504.29,384.42c3.21,0,3.22-5,0-5s-3.23,5,0,5Z" transform="translate(-22.8 -21.28)"/><path class="cls-1" d="M1343.82,271.24c3.22,0,3.22-5,0-5s-3.22,5,0,5Z" transform="translate(-22.8 -21.28)"/><path class="cls-1" d="M1384.91,207.68c3.21,0,3.22-5,0-5s-3.23,5,0,5Z" transform="translate(-22.8 -21.28)"/><path class="cls-1" d="M1406.83,173.61a23.34,23.34,0,0,0,5.82-7.48,2.69,2.69,0,0,0,.25-1.93,2.56,2.56,0,0,0-1.15-1.49,2.53,2.53,0,0,0-3.42.9,22.13,22.13,0,0,1-2.28,3.68l.39-.51a21.37,21.37,0,0,1-3.15,3.3,2.5,2.5,0,0,0,1.77,4.26,2.78,2.78,0,0,0,1.77-.73Z" transform="translate(-22.8 -21.28)"/><path class="cls-1" d="M1451.57,161.94c3.22,0,3.23-5,0-5s-3.22,5,0,5Z" transform="translate(-22.8 -21.28)"/><path class="cls-1" d="M1301.19,310c3.21,0,3.22-5,0-5s-3.23,5,0,5Z" transform="translate(-22.8 -21.28)"/><path class="cls-1" d="M1321.34,358.84c3.22,0,3.22-5,0-5s-3.22,5,0,5Z" transform="translate(-22.8 -21.28)"/><path class="cls-1" d="M1370,329.7l1.55-3.1a2,2,0,0,0,.3-.93,1.89,1.89,0,0,0,0-1,1.78,1.78,0,0,0-.44-.85,1.93,1.93,0,0,0-.71-.65,2.51,2.51,0,0,0-3.42.9l-1.55,3.1a1.85,1.85,0,0,0-.29.93,1.89,1.89,0,0,0,0,1,1.94,1.94,0,0,0,.45.85,1.87,1.87,0,0,0,.7.64,2.5,2.5,0,0,0,1.93.25,2.48,2.48,0,0,0,1.49-1.14Z" transform="translate(-22.8 -21.28)"/><path class="cls-1" d="M1350.66,300.51l-.24-.06a4.28,4.28,0,0,0-.9-.1c-.25,0-.51.06-.76.1l-.12,0a5,5,0,0,0-.82.32l-.22.13a5.56,5.56,0,0,0-.67.53,5,5,0,0,0-.53.68l-.06.11a2.63,2.63,0,0,0-.15.35c0,.11-.11.24-.15.35a1.9,1.9,0,0,0,0,1,2,2,0,0,0,.3.93,1.88,1.88,0,0,0,.64.7,2,2,0,0,0,.86.45l.66.09a2.53,2.53,0,0,0,1.26-.34l.51-.39a2.48,2.48,0,0,0,.64-1.11s0,0,0,0l-.25.59a1.59,1.59,0,0,1,.13-.22l-.39.51a1.25,1.25,0,0,1,.23-.23l-.51.39a1.56,1.56,0,0,1,.28-.16l-.59.25a1.59,1.59,0,0,1,.33-.09l-.67.09h.3l-.66-.09a1.14,1.14,0,0,1,.25.06,1.89,1.89,0,0,0,1,.05,2.26,2.26,0,0,0,1.63-.94,1.94,1.94,0,0,0,.45-.85l.09-.67a2.54,2.54,0,0,0-.35-1.26l-.39-.5a2.52,2.52,0,0,0-1.1-.65Z" transform="translate(-22.8 -21.28)"/><path class="cls-1" d="M1335.47,330v-.77a1.86,1.86,0,0,0-.22-1,1.93,1.93,0,0,0-.51-.81,2.05,2.05,0,0,0-.81-.52,2,2,0,0,0-1-.21l-.67.09a2.5,2.5,0,0,0-1.1.64l-.39.51a2.43,2.43,0,0,0-.34,1.26V330a2,2,0,0,0,.21,1,2,2,0,0,0,.52.8,1.85,1.85,0,0,0,.81.52,1.74,1.74,0,0,0,1,.21l.66-.08a2.55,2.55,0,0,0,1.11-.65l.39-.5a2.54,2.54,0,0,0,.34-1.27Z" transform="translate(-22.8 -21.28)"/><path class="cls-1" d="M1318.24,275.9c3.22,0,3.22-5,0-5s-3.22,5,0,5Z" transform="translate(-22.8 -21.28)"/><path class="cls-1" d="M1294.21,272.79c3.22,0,3.22-5,0-5s-3.22,5,0,5Z" transform="translate(-22.8 -21.28)"/><path class="cls-1" d="M1242.49,293.77l.77-.78a1.77,1.77,0,0,0,.52-.8,2.23,2.23,0,0,0,0-1.93,1.77,1.77,0,0,0-.52-.8l-.5-.39a2.54,2.54,0,0,0-1.26-.35l-.67.09a2.52,2.52,0,0,0-1.1.65l-.78.77a1.93,1.93,0,0,0-.51.81,2.2,2.2,0,0,0,0,1.92,1.93,1.93,0,0,0,.51.81l.51.39a2.53,2.53,0,0,0,1.26.34l.67-.09a2.5,2.5,0,0,0,1.1-.64Z" transform="translate(-22.8 -21.28)"/><path class="cls-1" d="M1196.53,310.78c3.22,0,3.23-5,0-5s-3.22,5,0,5Z" transform="translate(-22.8 -21.28)"/><path class="cls-1" d="M1183.36,268.14c3.21,0,3.22-5,0-5s-3.23,5,0,5Z" transform="translate(-22.8 -21.28)"/><path class="cls-1" d="M1174.05,230.16c3.22,0,3.23-5,0-5s-3.22,5,0,5Z" transform="translate(-22.8 -21.28)"/><path class="cls-1" d="M1164,73.57c3.21,0,3.22-5,0-5s-3.23,5,0,5Z" transform="translate(-22.8 -21.28)"/><path class="cls-1" d="M1160.1,120.08c3.22,0,3.22-5,0-5s-3.22,5,0,5Z" transform="translate(-22.8 -21.28)"/><path class="cls-1" d="M1227.54,70.47c3.22,0,3.23-5,0-5s-3.22,5,0,5Z" transform="translate(-22.8 -21.28)"/><path class="cls-1" d="M1229.09,43.34c3.22,0,3.23-5,0-5s-3.22,5,0,5Z" transform="translate(-22.8 -21.28)"/><path class="cls-1" d="M1152.35,34c3.22,0,3.22-5,0-5s-3.22,5,0,5Z" transform="translate(-22.8 -21.28)"/><path class="cls-1" d="M1054.67,35.59c3.22,0,3.23-5,0-5s-3.22,5,0,5Z" transform="translate(-22.8 -21.28)"/><path class="cls-1" d="M1041.5,44.89c3.21,0,3.22-5,0-5s-3.23,5,0,5Z" transform="translate(-22.8 -21.28)"/><path class="cls-1" d="M1085.68,48.76c3.22,0,3.22-5,0-5s-3.22,5,0,5Z" transform="translate(-22.8 -21.28)"/><path class="cls-1" d="M1100.41,30.16c3.22,0,3.22-5,0-5s-3.22,5,0,5Z" transform="translate(-22.8 -21.28)"/><path class="cls-1" d="M1110.49,48.76c3.22,0,3.22-5,0-5s-3.22,5,0,5Z" transform="translate(-22.8 -21.28)"/><path class="cls-1" d="M1117.47,83.65c3.21,0,3.22-5,0-5s-3.23,5,0,5Z" transform="translate(-22.8 -21.28)"/><path class="cls-1" d="M1065.53,80.55c3.21,0,3.22-5,0-5s-3.23,5,0,5Z" transform="translate(-22.8 -21.28)"/><path class="cls-1" d="M1001.19,79.77c3.21,0,3.22-5,0-5s-3.23,5,0,5Z" transform="translate(-22.8 -21.28)"/><path class="cls-1" d="M958.55,65.82c3.22,0,3.22-5,0-5s-3.22,5,0,5Z" transform="translate(-22.8 -21.28)"/><path class="cls-1" d="M960.88,107.68c3.21,0,3.22-5,0-5s-3.23,5,0,5Z" transform="translate(-22.8 -21.28)"/><path class="cls-1" d="M900.41,121.63c3.22,0,3.22-5,0-5s-3.22,5,0,5Z" transform="translate(-22.8 -21.28)"/><path class="cls-1" d="M902,150.31c3.22,0,3.22-5,0-5s-3.22,5,0,5Z" transform="translate(-22.8 -21.28)"/><path class="cls-1" d="M846.92,146.44c3.22,0,3.23-5,0-5s-3.22,5,0,5Z" transform="translate(-22.8 -21.28)"/><path class="cls-1" d="M812.81,147.21c3.22,0,3.23-5,0-5s-3.22,5,0,5Z" transform="translate(-22.8 -21.28)"/><path class="cls-1" d="M805.84,120.86c3.21,0,3.22-5,0-5s-3.23,5,0,5Z" transform="translate(-22.8 -21.28)"/><path class="cls-1" d="M848.47,105.35c3.22,0,3.23-5,0-5s-3.22,5,0,5Z" transform="translate(-22.8 -21.28)"/><path class="cls-1" d="M873.28,74.34c3.22,0,3.22-5,0-5s-3.22,5,0,5Z" transform="translate(-22.8 -21.28)"/><path class="cls-1" d="M905.84,41c3.21,0,3.22-5,0-5s-3.23,5,0,5Z" transform="translate(-22.8 -21.28)"/><path class="cls-1" d="M953.12,38.69c3.22,0,3.23-5,0-5s-3.22,5,0,5Z" transform="translate(-22.8 -21.28)"/><path class="cls-1" d="M995,26.28c3.22,0,3.23-5,0-5s-3.22,5,0,5Z" transform="translate(-22.8 -21.28)"/><path class="cls-1" d="M833.74,32.48c3.22,0,3.23-5,0-5s-3.22,5,0,5Z" transform="translate(-22.8 -21.28)"/><path class="cls-1" d="M742.27,30.93c3.22,0,3.22-5,0-5s-3.22,5,0,5Z" transform="translate(-22.8 -21.28)"/><path class="cls-1" d="M807.39,55.74c3.21,0,3.22-5,0-5s-3.22,5,0,5Z" transform="translate(-22.8 -21.28)"/><path class="cls-1" d="M705.84,34.81c3.21,0,3.22-5,0-5s-3.23,5,0,5Z" transform="translate(-22.8 -21.28)"/><path class="cls-1" d="M652.35,61.17c3.22,0,3.22-5,0-5s-3.22,5,0,5Z" transform="translate(-22.8 -21.28)"/><path class="cls-1" d="M612.81,80.55c3.22,0,3.23-5,0-5s-3.22,5,0,5Z" transform="translate(-22.8 -21.28)"/><path class="cls-1" d="M573.28,103.8c3.22,0,3.22-5,0-5s-3.22,5,0,5Z" transform="translate(-22.8 -21.28)"/><path class="cls-1" d="M526,127.83c3.22,0,3.22-5,0-5s-3.22,5,0,5Z" transform="translate(-22.8 -21.28)"/><path class="cls-1" d="M505.84,169.69c3.21,0,3.22-5,0-5s-3.23,5,0,5Z" transform="translate(-22.8 -21.28)"/><path class="cls-1" d="M462.43,169.69c3.21,0,3.22-5,0-5s-3.23,5,0,5Z" transform="translate(-22.8 -21.28)"/><path class="cls-1" d="M395.76,184.42c3.22,0,3.22-5,0-5s-3.22,5,0,5Z" transform="translate(-22.8 -21.28)"/><path class="cls-1" d="M343.05,206.9c3.21,0,3.22-5,0-5s-3.23,5,0,5Z" transform="translate(-22.8 -21.28)"/><path class="cls-1" d="M435.29,66.59c3.22,0,3.23-5,0-5s-3.22,5,0,5Z" transform="translate(-22.8 -21.28)"/><path class="cls-1" d="M471.73,26.28c3.22,0,3.22-5,0-5s-3.22,5,0,5Z" transform="translate(-22.8 -21.28)"/><path class="cls-1" d="M604.29,27.83c3.21,0,3.22-5,0-5s-3.23,5,0,5Z" transform="translate(-22.8 -21.28)"/><path class="cls-1" d="M652.35,30.93c3.22,0,3.22-5,0-5s-3.22,5,0,5Z" transform="translate(-22.8 -21.28)"/><path class="cls-1" d="M549.07,35.41v.78a1.88,1.88,0,0,0,.22,1,2.3,2.3,0,0,0,1.32,1.32,1.88,1.88,0,0,0,1,.22l.67-.09a2.52,2.52,0,0,0,1.1-.65l.39-.5a2.43,2.43,0,0,0,.34-1.26v-.78a1.88,1.88,0,0,0-.21-1,1.85,1.85,0,0,0-.52-.81,2.83,2.83,0,0,0-1.77-.73l-.66.09a2.5,2.5,0,0,0-1.1.64l-.4.51a2.64,2.64,0,0,0-.34,1.26Z" transform="translate(-22.8 -21.28)"/><path class="cls-1" d="M536.07,72.79c3.22,0,3.22-5,0-5s-3.22,5,0,5Z" transform="translate(-22.8 -21.28)"/><path class="cls-1" d="M593.92,60.83l1.55-.78a1.88,1.88,0,0,0,.7-.64,2,2,0,0,0,.45-.85,1.89,1.89,0,0,0,0-1,1.85,1.85,0,0,0-.29-.93l-.39-.51a2.48,2.48,0,0,0-1.11-.64l-.66-.09a2.53,2.53,0,0,0-1.26.34l-1.55.78a1.88,1.88,0,0,0-.7.64,1.85,1.85,0,0,0-.45.85,1.89,1.89,0,0,0,0,1,2,2,0,0,0,.3.93l.39.5a2.52,2.52,0,0,0,1.1.65l.67.09a2.53,2.53,0,0,0,1.26-.34Z" transform="translate(-22.8 -21.28)"/><path class="cls-1" d="M389.56,39.46c3.22,0,3.22-5,0-5s-3.22,5,0,5Z" transform="translate(-22.8 -21.28)"/><path class="cls-1" d="M261.36,34.47l1.55-.78a1.8,1.8,0,0,0,.7-.64,1.85,1.85,0,0,0,.45-.85,1.89,1.89,0,0,0,.05-1,2,2,0,0,0-.3-.93l-.39-.5a2.52,2.52,0,0,0-1.1-.65l-.67-.09a2.54,2.54,0,0,0-1.26.35l-1.55.77a1.83,1.83,0,0,0-.7.65,1.89,1.89,0,0,0-.45.85,1.85,1.85,0,0,0,0,1,1.82,1.82,0,0,0,.29.93l.39.51a2.48,2.48,0,0,0,1.11.64l.66.09a2.53,2.53,0,0,0,1.26-.34Z" transform="translate(-22.8 -21.28)"/><path class="cls-1" d="M262.43,71.61l-3.87-.14a2.5,2.5,0,0,0-1.77,4.26,2.7,2.7,0,0,0,1.77.74l3.87.14a2.61,2.61,0,0,0,1.77-.73,2.57,2.57,0,0,0,.73-1.77,2.53,2.53,0,0,0-.73-1.77,2.66,2.66,0,0,0-1.77-.73Z" transform="translate(-22.8 -21.28)"/><path class="cls-1" d="M183.36,58.07c3.21,0,3.22-5,0-5s-3.23,5,0,5Z" transform="translate(-22.8 -21.28)"/><path class="cls-1" d="M143.82,30.16c3.22,0,3.22-5,0-5s-3.22,5,0,5Z" transform="translate(-22.8 -21.28)"/><path class="cls-1" d="M99.64,31.71c3.21,0,3.22-5,0-5s-3.23,5,0,5Z" transform="translate(-22.8 -21.28)"/><path class="cls-1" d="M25.22,50.31c3.21,0,3.22-5,0-5s-3.23,5,0,5Z" transform="translate(-22.8 -21.28)"/><path class="cls-1" d="M46.15,88.3h.77a2.83,2.83,0,0,0,1.77-.73,2,2,0,0,0,.52-.81,1.88,1.88,0,0,0,.21-1l-.09-.67a2.5,2.5,0,0,0-.64-1.1l-.51-.39a2.43,2.43,0,0,0-1.26-.34h-.77a2,2,0,0,0-1,.21,1.92,1.92,0,0,0-.8.52,2,2,0,0,0-.52.81,1.83,1.83,0,0,0-.21,1l.09.66a2.53,2.53,0,0,0,.64,1.11l.51.39a2.53,2.53,0,0,0,1.26.34Z" transform="translate(-22.8 -21.28)"/><path class="cls-1" d="M92.66,63.49c3.22,0,3.22-5,0-5s-3.22,5,0,5Z" transform="translate(-22.8 -21.28)"/><path class="cls-1" d="M108.94,51.09c3.22,0,3.22-5,0-5s-3.22,5,0,5Z" transform="translate(-22.8 -21.28)"/><path class="cls-1" d="M110.49,79c3.22,0,3.22-5,0-5s-3.22,5,0,5Z" transform="translate(-22.8 -21.28)"/><path class="cls-1" d="M78.71,94.5c3.21,0,3.22-5,0-5s-3.23,5,0,5Z" transform="translate(-22.8 -21.28)"/><path class="cls-1" d="M298.86,82.1c3.22,0,3.22-5,0-5s-3.22,5,0,5Z" transform="translate(-22.8 -21.28)"/><path class="cls-1" d="M307.29,52.59l.56-.1-.67.09a8.63,8.63,0,0,1,2.27,0l-.67-.09a8.76,8.76,0,0,1,2.19.59l-.6-.25.43.2a2.75,2.75,0,0,0,1.93.25,2.56,2.56,0,0,0,1.49-1.15,2.5,2.5,0,0,0,.25-1.93,2.46,2.46,0,0,0-1.15-1.49,13.15,13.15,0,0,0-1.91-.77,12.05,12.05,0,0,0-2-.36,10.5,10.5,0,0,0-3.49.19,2.54,2.54,0,0,0-1.5,1.15,2.51,2.51,0,0,0,.9,3.42,2.8,2.8,0,0,0,1.93.25Z" transform="translate(-22.8 -21.28)"/><path class="cls-1" d="M333.19,54.23a11.19,11.19,0,0,1,1.84-1.8l-.51.4A11.7,11.7,0,0,1,337,51.37l-.6.26a11.3,11.3,0,0,1,1.89-.62A2.51,2.51,0,0,0,340,47.94,2.56,2.56,0,0,0,337,46.19a13.48,13.48,0,0,0-7.31,4.51,2.71,2.71,0,0,0-.73,1.77,2.51,2.51,0,0,0,2.5,2.5,2.46,2.46,0,0,0,1.77-.74Z" transform="translate(-22.8 -21.28)"/><path class="cls-1" d="M347.7,31.71c3.21,0,3.22-5,0-5s-3.22,5,0,5Z" transform="translate(-22.8 -21.28)"/><path class="cls-1" d="M317.47,78.22c3.21,0,3.22-5,0-5s-3.23,5,0,5Z" transform="translate(-22.8 -21.28)"/><path class="cls-1" d="M341.75,65.12l.1-.08-.51.39a1.71,1.71,0,0,1,.23-.13l-.6.25a2,2,0,0,1,.33-.09l-.66.09H341l-.67-.08a1.46,1.46,0,0,1,.41.11l-.6-.25a1.51,1.51,0,0,1,.35.2l-.51-.39a1.15,1.15,0,0,1,.22.22l-.39-.51a1.28,1.28,0,0,1,.15.25l-.25-.59a1.12,1.12,0,0,1,.08.26,1.83,1.83,0,0,0,.44.85,2.32,2.32,0,0,0,1.63.94,1.89,1.89,0,0,0,1,0l.6-.25a2.59,2.59,0,0,0,.9-.9l.25-.59a2.5,2.5,0,0,0,0-1.33,1.05,1.05,0,0,0-.05-.19,5.09,5.09,0,0,0-.32-.76,4.06,4.06,0,0,0-.6-.78,4.27,4.27,0,0,0-1.69-1,5,5,0,0,0-1-.16,4.17,4.17,0,0,0-1,.1l-.19,0a5.88,5.88,0,0,0-.73.3,3,3,0,0,0-.81.6,1.82,1.82,0,0,0-.52.8,2.23,2.23,0,0,0,0,1.93,1.77,1.77,0,0,0,.52.8l.5.4a2.53,2.53,0,0,0,1.26.34l.67-.09a2.52,2.52,0,0,0,1.1-.65Z" transform="translate(-22.8 -21.28)"/><path class="cls-1" d="M279.48,115.43c3.22,0,3.22-5,0-5s-3.22,5,0,5Z" transform="translate(-22.8 -21.28)"/><path class="cls-1" d="M256.22,132.48c3.22,0,3.23-5,0-5s-3.22,5,0,5Z" transform="translate(-22.8 -21.28)"/><path class="cls-1" d="M206.83,147.26l.77-.78a1.82,1.82,0,0,0,.52-.8,2.23,2.23,0,0,0,0-1.93,1.77,1.77,0,0,0-.52-.8l-.5-.4a2.53,2.53,0,0,0-1.26-.34l-.67.09a2.52,2.52,0,0,0-1.1.65l-.78.77a1.93,1.93,0,0,0-.51.81,1.84,1.84,0,0,0-.22,1,1.88,1.88,0,0,0,.22,1,1.93,1.93,0,0,0,.51.81l.51.39a2.53,2.53,0,0,0,1.26.34l.67-.09a2.5,2.5,0,0,0,1.1-.64Z" transform="translate(-22.8 -21.28)"/><path class="cls-1" d="M102,156.52c3.22,0,3.22-5,0-5s-3.22,5,0,5Z" transform="translate(-22.8 -21.28)"/><path class="cls-1" d="M80.26,174.34c3.21,0,3.22-5,0-5s-3.23,5,0,5Z" transform="translate(-22.8 -21.28)"/><path class="cls-1" d="M68.8,183.47v-.77a1.89,1.89,0,0,0-.21-1,2.3,2.3,0,0,0-1.32-1.32,1.89,1.89,0,0,0-1-.21l-.66.09a2.53,2.53,0,0,0-1.11.64l-.39.51a2.53,2.53,0,0,0-.34,1.26v.77a2.83,2.83,0,0,0,.73,1.77,2,2,0,0,0,.81.52,1.88,1.88,0,0,0,1,.21l.67-.09a2.5,2.5,0,0,0,1.1-.64l.39-.51a2.43,2.43,0,0,0,.34-1.26Z" transform="translate(-22.8 -21.28)"/><path class="cls-1" d="M581,233.26c3.22,0,3.22-5,0-5s-3.22,5,0,5Z" transform="translate(-22.8 -21.28)"/><path class="cls-1" d="M597.31,280.55c3.22,0,3.22-5,0-5s-3.22,5,0,5Z" transform="translate(-22.8 -21.28)"/><path class="cls-1" d="M584.13,298.38c3.22,0,3.22-5,0-5s-3.22,5,0,5Z" transform="translate(-22.8 -21.28)"/><path class="cls-1" d="M533.74,362.72c3.22,0,3.23-5,0-5s-3.22,5,0,5Z" transform="translate(-22.8 -21.28)"/><path class="cls-1" d="M504.29,374.34c3.21,0,3.22-5,0-5s-3.23,5,0,5Z" transform="translate(-22.8 -21.28)"/><path class="cls-1" d="M444.38,375.94l.77.77a1.85,1.85,0,0,0,.81.52,2.23,2.23,0,0,0,1.93,0,1.82,1.82,0,0,0,.8-.52l.39-.5a2.43,2.43,0,0,0,.34-1.26l-.09-.67a2.5,2.5,0,0,0-.64-1.1l-.77-.78a1.93,1.93,0,0,0-.81-.51,2.58,2.58,0,0,0-2.73.51l-.39.51a2.43,2.43,0,0,0-.34,1.26l.09.67a2.5,2.5,0,0,0,.64,1.1Z" transform="translate(-22.8 -21.28)"/><path class="cls-1" d="M477.16,408.45c3.21,0,3.22-5,0-5s-3.23,5,0,5Z" transform="translate(-22.8 -21.28)"/><path class="cls-1" d="M445.37,443.34h.78a1.88,1.88,0,0,0,1-.22,1.85,1.85,0,0,0,.81-.52,1.83,1.83,0,0,0,.51-.8,1.88,1.88,0,0,0,.22-1l-.09-.67a2.6,2.6,0,0,0-.64-1.1l-.51-.39a2.43,2.43,0,0,0-1.26-.34h-.78a1.88,1.88,0,0,0-1,.21,2,2,0,0,0-.81.52,2.83,2.83,0,0,0-.73,1.77l.09.66a2.45,2.45,0,0,0,.64,1.1l.51.4a2.53,2.53,0,0,0,1.26.34Z" transform="translate(-22.8 -21.28)"/><path class="cls-1" d="M526.77,437.14c3.21,0,3.22-5,0-5s-3.23,5,0,5Z" transform="translate(-22.8 -21.28)"/><path class="cls-1" d="M518.24,396.83c3.22,0,3.22-5,0-5s-3.22,5,0,5Z" transform="translate(-22.8 -21.28)"/><path class="cls-1" d="M596.41,447.86l3.1-.78a1.89,1.89,0,0,0,.85-.45,1.83,1.83,0,0,0,.65-.7,1.9,1.9,0,0,0,.3-.93,2,2,0,0,0,0-1,2.55,2.55,0,0,0-1.15-1.5,2.62,2.62,0,0,0-1.92-.25l-3.11.77a2,2,0,0,0-.85.45,2.26,2.26,0,0,0-.94,1.63,1.89,1.89,0,0,0,.05,1,2.46,2.46,0,0,0,1.15,1.49,2.67,2.67,0,0,0,1.92.26Z" transform="translate(-22.8 -21.28)"/></svg>