<svg id="Camada_1" data-name="Camada 1" xmlns="http://www.w3.org/2000/svg" viewBox="0 0 524.02 589.2"><defs><style>.cls-1{fill:#adf3a7;}.cls-2{fill:#a5ef8a;}.cls-3{fill:#d3d7fb;}.cls-4{fill:#beead1;}.cls-5{fill:#d0f4c4;}.cls-6{fill:#30be6e;}.cls-7{fill:#65c8bc;}.cls-8{fill:#28c027;}.cls-9{fill:#7983f7;}.cls-10{fill:#5ae850;}.cls-11{fill:#42d614;}.cls-12{fill:#65f316;}.cls-13{fill:#386fd6;}.cls-14{fill:#42d613;}.cls-15{fill:#8cc5cc;}.cls-16{fill:#30be6f;}.cls-17{fill:#8cc6cb;}</style></defs><path class="cls-1" d="M675.5,194.83a.87.87,0,0,1,.42,0V372.4h-.41c0-.8-.09-1.6-.09-2.4q0-86,0-172C675.43,196.91,675.47,195.87,675.5,194.83Z" transform="translate(-151.9 -1.99)"/><path class="cls-2" d="M675.51,372.39h.41V407a2.58,2.58,0,0,1-.39,0c0-1-.08-2.06-.08-3.09q-.06-11.19-.08-22.37C675.42,378.48,675.46,375.44,675.51,372.39Z" transform="translate(-151.9 -1.99)"/><path class="cls-3" d="M416.84,2c0,.14,0,.29,0,.43l-6.76,0c0-.15,0-.3,0-.45Z" transform="translate(-151.9 -1.99)"/><path class="cls-4" d="M417.33,590.74a1.7,1.7,0,0,0,0,.45h-6.23a1.78,1.78,0,0,0,0-.46Z" transform="translate(-151.9 -1.99)"/><path class="cls-5" d="M675.53,407a2.58,2.58,0,0,0,.39,0v3.36l-.41,0Z" transform="translate(-151.9 -1.99)"/><path class="cls-6" d="M417.33,590.74h-6.26a75.17,75.17,0,0,1-25.69-8.86q-18.74-10.2-37.23-20.83-68.68-39.49-137.28-79.13c-.47-.28-.9-.63-1.35-1q0-20,0-40c0-8.06,0-16.12,0-24.19,0-2-.59-3.32-2.5-4.15a43.76,43.76,0,0,1-4.59-2.54q-9.81-5.71-19.61-11.42c-8.13-4.72-16.26-9.44-24.42-14.09-2-1.14-4.11-2-6.17-3-.07-.95-.21-1.9-.21-2.85,0-29.42.07-58.84,0-88.27,0-30.21-.21-60.43-.21-90.65,0-8.23.26-16.47.65-24.69A67,67,0,0,1,155,159.49a44.43,44.43,0,0,1,15.68-22.71c2.37-1.89,4.8-3.73,7.3-5.44,10-6.82,20.44-12.82,31-18.71,1.25.68,1,1.88,1,3q0,20.86,0,41.72c0,7.11.06,14.22.1,21.33a12.93,12.93,0,0,0-.46,2.1c-.2,2.95-.47,5.9-.46,8.85,0,8.07.15,16.15.25,24.22.13,11,.35,22.06.39,33.09,0,11.75-.12,23.5-.12,35.25,0,12.47.13,24.94.13,37.41,0,11.19-.08,22.38-.14,33.57-.1,16.23-.25,32.46-.31,48.69,0,3.43.27,6.86.4,10.3a4.51,4.51,0,0,0,2.36,3.9c2.79,1.71,5.46,3.64,8.31,5.25,10.08,5.71,20.26,11.24,30.31,17q34.53,19.78,69,39.74,27.19,15.72,54.28,31.6c11.29,6.66,22.38,13.64,34.05,19.63,1.91,1,3.91,1.8,5.86,2.7,1.36.92,2.67,1.92,4.08,2.75q11,6.48,22,12.89,14.76,8.55,29.56,17a14.71,14.71,0,0,0,2.18.85,9.81,9.81,0,0,1-1.31,1c-10.08,5.65-20.1,11.4-30.27,16.87A66.56,66.56,0,0,1,417.33,590.74Z" transform="translate(-151.9 -1.99)"/><path class="cls-7" d="M210.11,178.65c0-7.11-.1-14.22-.1-21.33q0-20.85,0-41.72c0-1.09.24-2.29-1-3,7.51-4.39,15-8.81,22.53-13.17q22.5-13,45-26l45-26c10.44-6,20.86-12.13,31.29-18.17,1.24-.71,2.56-1.3,3.84-1.94l3.93,2.24,20.88,12.08c6.75,3.9,13.5,7.82,20.27,11.7,4.21,2.41,8.46,4.77,12.69,7.15l.86.93a8.54,8.54,0,0,0-5.3,1.08c-3.32,1.76-6.7,3.42-9.93,5.33C386,76.24,371.85,84.7,357.68,93.08Q344.38,101,331,108.67c-16.77,9.63-33.58,19.17-50.37,28.77Q262,148.09,243.43,158.8q-13.08,7.55-26.1,15.18C214.86,175.43,212.51,177.09,210.11,178.65Z" transform="translate(-151.9 -1.99)"/><path class="cls-8" d="M152.29,381.53c2.06,1,4.19,1.9,6.17,3,8.16,4.65,16.29,9.37,24.42,14.09q9.81,5.68,19.61,11.42a43.76,43.76,0,0,0,4.59,2.54c1.91.83,2.51,2.17,2.5,4.15-.06,8.07,0,16.13,0,24.19q0,20,0,40a4.87,4.87,0,0,1-.88-.34c-9.28-5.49-18.63-10.86-27.77-16.56a114.93,114.93,0,0,1-12.12-9c-8-6.57-12.39-15.26-14.37-25.3a109.36,109.36,0,0,1-1.87-18.57c-.23-9.1-.27-18.21-.37-27.31C152.13,383.12,152.24,382.32,152.29,381.53Z" transform="translate(-151.9 -1.99)"/><path class="cls-9" d="M414.49,60.53c-4.23-2.38-8.48-4.74-12.69-7.15-6.77-3.88-13.52-7.8-20.27-11.7L360.65,29.6l-3.93-2.24A11.06,11.06,0,0,1,358.36,26c9.26-5.2,18.48-10.47,27.83-15.5a69,69,0,0,1,17.1-6.76c2.25-.52,4.54-.87,6.81-1.3l6.76,0c11.75,1.5,22.08,6.77,32.29,12.26,6.76,3.63,13.37,7.53,20,11.33a19.63,19.63,0,0,1,1.89,1.4c-1.42.87-2.81,1.77-4.25,2.59-4.36,2.47-8.76,4.88-13.1,7.39q-15.59,9-31.14,18.13C419.85,57.13,417.18,58.86,414.49,60.53Z" transform="translate(-151.9 -1.99)"/><path class="cls-10" d="M471.75,565.43a14.71,14.71,0,0,1-2.18-.85q-14.79-8.48-29.56-17-11-6.39-22-12.89c-1.41-.83-2.72-1.83-4.08-2.75,3.37-1.63,6.86-3.06,10.09-4.94,10.71-6.22,21.28-12.67,32-18.9q32.2-18.77,64.5-37.37t64.71-37c11.11-6.3,22.49-12.15,32.83-19.74l.77.13q0,31.39,0,62.77a7.06,7.06,0,0,0,0,1.9c.12.43.64.75,1,1.12-3.42,2.05-6.81,4.16-10.26,6.14-11.41,6.58-22.87,13.09-34.28,19.68q-48.12,27.84-96.21,55.72C476.69,562.86,474.21,564.12,471.75,565.43Z" transform="translate(-151.9 -1.99)"/><path class="cls-11" d="M619.85,479.93c-.34-.37-.86-.69-1-1.12a7.06,7.06,0,0,1,0-1.9q0-31.38,0-62.77c.78-.54,1.52-1.14,2.34-1.61,7.72-4.45,15.46-8.85,23.17-13.3,8.82-5.09,17.6-10.24,26.41-15.33,1.5-.86,3.1-1.58,4.65-2.37q0,11.19.08,22.37c0,1,0,2.06.08,3.09s0,2.23,0,3.34c-.34,5.18-.48,10.38-1,15.53a42.26,42.26,0,0,1-14.65,28.24A122.71,122.71,0,0,1,646,464.4c-8.15,5.19-16.55,10-24.85,14.93A13.8,13.8,0,0,1,619.85,479.93Z" transform="translate(-151.9 -1.99)"/><path class="cls-12" d="M675.37,381.53c-1.55.79-3.15,1.51-4.65,2.37-8.81,5.09-17.59,10.24-26.41,15.33-7.71,4.45-15.45,8.85-23.17,13.3-.82.47-1.56,1.07-2.34,1.61L618,414c.26-7.26.73-14.53.73-21.79,0-13.75-.37-27.49-.44-41.24-.1-22.54-.17-45.09-.09-67.63.1-27.58.42-55.15.52-82.73,0-6.86-.43-13.73-.66-20.59.07-1.51.21-3,.21-4.53q0-20.58,0-41.17c0-7.34.07-14.68.1-22,1.84,1,3.72,1.83,5.5,2.86,9.75,5.62,19.62,11,28.73,17.67,2.45,1.79,4.8,3.71,7.08,5.7,7.58,6.61,11.93,15,13.8,24.83a125.06,125.06,0,0,1,1.89,23.58c0,2.63.06,5.26.09,7.89,0,1-.07,2.08-.07,3.11q0,86,0,172.05c0,.8.06,1.6.09,2.4C675.46,375.44,675.42,378.48,675.37,381.53Z" transform="translate(-151.9 -1.99)"/><path class="cls-13" d="M618.41,112.3c0,7.35-.09,14.69-.1,22q0,20.58,0,41.17c0,1.51-.14,3-.21,4.53a16.5,16.5,0,0,0-2.69-2.94c-3.8-2.51-7.64-5-11.6-7.22-15.35-8.72-30.83-17.23-46.14-26q-46.35-26.62-92.57-53.49c-12.23-7.1-24.3-14.47-36.5-21.64-4.33-2.54-8.82-4.84-13.24-7.25l-.86-.93c2.69-1.67,5.36-3.4,8.09-5q15.56-9.1,31.14-18.13c4.34-2.51,8.74-4.92,13.1-7.39,1.44-.82,2.83-1.72,4.25-2.59,1.55.81,3.13,1.57,4.65,2.44l125.33,72.34c4.22,2.43,8.51,4.74,12.74,7.16C615.37,110.26,616.87,111.31,618.41,112.3Z" transform="translate(-151.9 -1.99)"/><path class="cls-10" d="M574.32,182.62c.77.08,1.54.14,2.31.24,1.11.14,1.74.65,1.43,1.88-.57.84-1.2,1.64-1.7,2.52-1.09,1.88-2.12,3.8-3.17,5.71l-.41.51,0,0-.53,1.44,0,0-.48.51h0c-.92.34-1.07,1.07-1,1.93v0l-.49.5.07,0c-1,1.32-2,2.63-2.92,3.95-3.93,5.41-7.81,10.85-11.79,16.21a166.38,166.38,0,0,1-15.52,17.81c-2.13,2.14-4.37,4.19-6.64,6.19-3.76,3.31-7.47,6.7-11.41,9.79A185.67,185.67,0,0,1,501,266.38c-1.76,1-3.25,2.61-5.41,2.89-3.73-2.85-7.34-5.88-11.22-8.49-5.89-3.95-12-7.62-18-11.39a5,5,0,0,0-4.12-.52c-3.85,1-7.73,1.86-11.63,2.6-5.69,1.09-11.4,2.07-17.12,3-4.07.68-8.15,1.25-12.24,1.81s-8,.95-12.05,1.54q-8.94,1.31-17.87,2.76c-5.25.85-10.53,1.59-15.72,2.7-7,1.51-13.93,3.29-20.86,5-2,.51-4.07.89-5.63,2.43A199.94,199.94,0,0,0,328,252a169.65,169.65,0,0,0-42.9-23.6c-1.08-.4-2.15-.85-3.77-1.49,1.29-.67,2-1.09,2.8-1.45a153.73,153.73,0,0,1,45.72-13.63c17-2.23,33.94-2,50.7,2.11,1,.25,2,.36,3.06.54,1.92.5,3.81,1.14,5.76,1.46,3.84.61,7.74.92,11.57,1.59a81.66,81.66,0,0,0,14.47,1.34c9,0,17.91,0,26.87,0,2.86,0,5.72-.31,8.57-.54,3-.25,6-.58,9-.87,2.13-.2,4.28-.29,6.41-.59,3.85-.53,7.69-1.17,11.53-1.78,5.33-.85,10.69-1.56,16-2.61,9.75-1.92,19.44-4.13,29-6.88a206.63,206.63,0,0,0,38.77-15,14.76,14.76,0,0,0,2.06-1.52l0,0,1-.5,0,0,1-.5h0l1-.48c2.18-1.24,4.37-2.46,6.51-3.74A7.5,7.5,0,0,0,574.32,182.62Z" transform="translate(-151.9 -1.99)"/><path class="cls-6" d="M495.55,269.27c2.16-.28,3.65-1.87,5.41-2.89a185.67,185.67,0,0,0,21.21-14.62c3.94-3.09,7.65-6.48,11.41-9.79,2.27-2,4.51-4.05,6.64-6.19A166.38,166.38,0,0,0,555.74,218c4-5.36,7.86-10.8,11.79-16.21,1-1.32,1.94-2.63,2.91-3.95a28.38,28.38,0,0,1-1.34,3.27,209.79,209.79,0,0,1-14.56,22.43,14.28,14.28,0,0,0-1,2.13H564c-.33.89-.6,1.81-1,2.66a212.36,212.36,0,0,1-33.33,49.28c-17.64,19.66-38,36.08-60.2,50.22-4.38,2.79-8.82,5.48-13.29,8.12a6.53,6.53,0,0,0-3.13,4c-5.66,19-15.41,35.71-28.27,50.68a160.91,160.91,0,0,1-28.66,26.08c-.84.61-1.72,1.16-2.6,1.71a3.64,3.64,0,0,1-1,.16,20.57,20.57,0,0,1,.16-2.06,160.42,160.42,0,0,0,2.49-36.27,169.1,169.1,0,0,0-11.61-54.82c-.44-1.1-.77-2.25-1.15-3.38,1.29-.61,2.61-1.17,3.87-1.85s2.57-1.6,3.92-2.3q15.49-8.07,31.63-14.83,19.62-8.24,39.31-16.32a255.46,255.46,0,0,0,29.33-14.06C492.2,271.66,494.34,271.13,495.55,269.27Z" transform="translate(-151.9 -1.99)"/><path class="cls-14" d="M495.55,269.27c-1.21,1.86-3.35,2.39-5.12,3.4a255.46,255.46,0,0,1-29.33,14.06q-19.67,8.13-39.31,16.32-16.11,6.78-31.63,14.83c-1.35.7-2.59,1.59-3.92,2.3s-2.58,1.24-3.87,1.85c-1.55-3.23-3.08-6.47-4.65-9.68a169.1,169.1,0,0,0-26.63-39.2c-.69-.77-1.32-1.59-2-2.38,1.56-1.54,3.65-1.92,5.63-2.43,6.93-1.76,13.87-3.54,20.86-5,5.19-1.11,10.47-1.85,15.72-2.7q8.93-1.44,17.87-2.76c4-.59,8-1,12.05-1.54s8.17-1.13,12.24-1.81c5.72-.94,11.43-1.92,17.12-3,3.9-.74,7.78-1.64,11.63-2.6a5,5,0,0,1,4.12.52c6,3.77,12.08,7.44,18,11.39C488.21,263.39,491.82,266.42,495.55,269.27Z" transform="translate(-151.9 -1.99)"/><path class="cls-15" d="M574.32,182.62a7.5,7.5,0,0,1-1.29,1.29c-2.14,1.28-4.33,2.5-6.51,3.74l-1,.48h0l-1,.5,0,0-1,.5,0,0a29.07,29.07,0,0,0-3.39,1.07A192.57,192.57,0,0,1,522.17,202c-7.4,1.56-14.87,2.82-22.34,4-6.3,1-12.64,1.6-19,2.34-2.93.35-5.86.64-8.79.89A20.07,20.07,0,0,1,462,207.9a266.41,266.41,0,0,1-26-12.8c-1.93-1.11-3.9-2.17-5.85-3.26,2-.9,4-1.93,6.1-2.67a250.21,250.21,0,0,1,33.24-9.79c7.17-1.47,14.4-2.74,21.65-3.68,6.23-.81,12.53-1.09,18.81-1.49a97.72,97.72,0,0,1,11.47-.33c7.15.39,14.3,1,21.43,1.74,9.93,1,19.62,3.28,29.26,5.82A10.43,10.43,0,0,1,574.32,182.62Z" transform="translate(-151.9 -1.99)"/><path class="cls-16" d="M430.16,191.84c1.95,1.09,3.92,2.15,5.85,3.26a266.41,266.41,0,0,0,26,12.8,20.07,20.07,0,0,0,10.08,1.31c2.93-.25,5.86-.54,8.79-.89,6.32-.74,12.66-1.37,19-2.34,7.47-1.14,14.94-2.4,22.34-4a192.57,192.57,0,0,0,38.08-11.87,29.07,29.07,0,0,1,3.39-1.07,14.76,14.76,0,0,1-2.06,1.52,206.63,206.63,0,0,1-38.77,15c-9.57,2.75-19.26,5-29,6.88-5.3,1.05-10.66,1.76-16,2.61-3.84.61-7.68,1.25-11.53,1.78-2.13.3-4.28.39-6.41.59-3,.29-6,.62-9,.87-2.85.23-5.71.51-8.57.54-9,.07-17.91,0-26.87,0a81.66,81.66,0,0,1-14.47-1.34c-3.83-.67-7.73-1-11.57-1.59-1.95-.32-3.84-1-5.76-1.46,1.68-1.06,3.3-2.23,5-3.18a347.61,347.61,0,0,1,38.8-18.56C428.34,192.4,429.26,192.14,430.16,191.84Z" transform="translate(-151.9 -1.99)"/><path class="cls-16" d="M270.35,378.69a11.93,11.93,0,0,1-11.85-10.28c-.77-5.12,1.1-9,5.83-11.83,3.77-2.26,7.6-4.41,11.41-6.61l67.68-39.06c4-2.34,8.16-3.11,12.56-1.05,7.57,3.53,8.62,14.4,2.45,19a78.41,78.41,0,0,1-7.2,4.74q-21.53,12.57-43.11,25c-8.29,4.8-16.64,9.52-24.95,14.29-2.43,1.4-4.8,2.88-7.24,4.25A10.09,10.09,0,0,1,270.35,378.69Z" transform="translate(-151.9 -1.99)"/><path class="cls-16" d="M256,320.25c.09-3.74,2.23-7.18,6.16-9.52S270,306.17,274,303.9q15.68-9,31.33-18a12.49,12.49,0,0,1,9.39-1.75,11.77,11.77,0,0,1,9,9.52,11.14,11.14,0,0,1-5.19,11.51c-6.9,4.16-13.88,8.2-20.84,12.27Q286,324.24,274.26,331a12,12,0,0,1-8.95,1.63C259.87,331.44,256,326.73,256,320.25Z" transform="translate(-151.9 -1.99)"/><path class="cls-16" d="M298.79,389.06a10.88,10.88,0,0,1,5.85-9.64q9.94-5.78,19.91-11.52,11.71-6.76,23.45-13.53c3.16-1.82,6.46-2.75,10.09-1.64,4.78,1.46,7.44,4.82,8.28,9.61a10.17,10.17,0,0,1-4.91,11.1c-5.63,3.49-11.38,6.8-17.1,10.14-9.17,5.36-18.39,10.63-27.53,16.05a11.35,11.35,0,0,1-12.24.13C300.61,397.49,298.77,394,298.79,389.06Z" transform="translate(-151.9 -1.99)"/><path class="cls-17" d="M564,225.64H553.51a14.28,14.28,0,0,1,1-2.13,209.79,209.79,0,0,0,14.56-22.43,28.38,28.38,0,0,0,1.34-3.27l-.06,0c.17-.16.33-.33.49-.5v0a1.74,1.74,0,0,0,1-1.93h0l.48-.51,0,0,.53-1.44,0,0,.41-.51c1-1.91,2.08-3.83,3.17-5.71.5-.88,1.13-1.68,1.7-2.52a36.75,36.75,0,0,1-.66,4.47,222.33,222.33,0,0,1-9.49,28.6c-.9,2.14-1.84,4.25-2.82,6.35A9.69,9.69,0,0,1,564,225.64Z" transform="translate(-151.9 -1.99)"/><path class="cls-6" d="M571.84,195.37a1.74,1.74,0,0,1-1,1.93C570.77,196.44,570.92,195.71,571.84,195.37Z" transform="translate(-151.9 -1.99)"/><path class="cls-6" d="M572.81,193.45l-.53,1.44Z" transform="translate(-151.9 -1.99)"/><path class="cls-16" d="M563.62,189.1l1-.5Z" transform="translate(-151.9 -1.99)"/><path class="cls-16" d="M564.58,188.62l1-.5Z" transform="translate(-151.9 -1.99)"/><path class="cls-16" d="M565.53,188.13l1-.48Z" transform="translate(-151.9 -1.99)"/><path class="cls-6" d="M572.3,194.87l-.48.51Z" transform="translate(-151.9 -1.99)"/><path class="cls-6" d="M570.87,197.28c-.16.17-.32.34-.49.5Z" transform="translate(-151.9 -1.99)"/><path class="cls-6" d="M573.19,193l-.41.51Z" transform="translate(-151.9 -1.99)"/></svg>